REM DIRINDEX 1\3,1\2\4,1\2\5,1\2\6
REM DIRNAME cjc137,folder01,folder02,folder03,folder04,folder05
TITLE ""
FILE "010.mp3" MP3
  TRACK 01 AUDIO
    TITLE "4:cjc137_0381"
    INDEX 01 00:00:00
  TRACK 02 AUDIO
    TITLE "0:"
    INDEX 01 00:01:32
  TRACK 03 AUDIO
    TITLE "6:cjc137_0382"
    INDEX 01 00:01:42
  TRACK 04 AUDIO
    TITLE "0:"
    INDEX 01 00:02:55
  TRACK 05 AUDIO
    TITLE "5:cjc137_0383"
    INDEX 01 00:02:65
  TRACK 06 AUDIO
    TITLE "0:"
    INDEX 01 00:04:21
  TRACK 07 AUDIO
    TITLE "4:cjc137_0384"
    INDEX 01 00:05:26
  TRACK 08 AUDIO
    TITLE "0:"
    INDEX 01 00:06:37
  TRACK 09 AUDIO
    TITLE "6:cjc137_0385"
    INDEX 01 00:06:51
  TRACK 10 AUDIO
    TITLE "0:"
    INDEX 01 00:08:30
  TRACK 11 AUDIO
    TITLE "5:cjc137_0386"
    INDEX 01 00:08:42
  TRACK 12 AUDIO
    TITLE "0:"
    INDEX 01 00:09:55
  TRACK 13 AUDIO
    TITLE "4:cjc137_0387"
    INDEX 01 00:10:65
  TRACK 14 AUDIO
    TITLE "0:"
    INDEX 01 00:11:70
  TRACK 15 AUDIO
    TITLE "6:cjc137_0388"
    INDEX 01 00:12:07
  TRACK 16 AUDIO
    TITLE "0:"
    INDEX 01 00:13:08
  TRACK 17 AUDIO
    TITLE "5:cjc137_0389"
    INDEX 01 00:13:22
  TRACK 18 AUDIO
    TITLE "0:"
    INDEX 01 00:14:27
  TRACK 19 AUDIO
    TITLE "4:cjc137_0390"
    INDEX 01 00:15:32
  TRACK 20 AUDIO
    TITLE "0:"
    INDEX 01 00:16:38
  TRACK 21 AUDIO
    TITLE "6:cjc137_0391"
    INDEX 01 00:16:49
  TRACK 22 AUDIO
    TITLE "0:"
    INDEX 01 00:17:65
  TRACK 23 AUDIO
    TITLE "5:cjc137_0392"
    INDEX 01 00:18:01
  TRACK 24 AUDIO
    TITLE "0:"
    INDEX 01 00:19:07
  TRACK 25 AUDIO
    TITLE "4:cjc137_0393"
    INDEX 01 00:20:16
  TRACK 26 AUDIO
    TITLE "0:"
    INDEX 01 00:21:29
  TRACK 27 AUDIO
    TITLE "6:cjc137_0394"
    INDEX 01 00:21:41
  TRACK 28 AUDIO
    TITLE "0:"
    INDEX 01 00:22:25
  TRACK 29 AUDIO
    TITLE "5:cjc137_0395"
    INDEX 01 00:22:38
  TRACK 30 AUDIO
    TITLE "0:"
    INDEX 01 00:23:48
  TRACK 31 AUDIO
    TITLE "4:cjc137_0396"
    INDEX 01 00:24:59
  TRACK 32 AUDIO
    TITLE "0:"
    INDEX 01 00:25:68
  TRACK 33 AUDIO
    TITLE "6:cjc137_0397"
    INDEX 01 00:26:05
  TRACK 34 AUDIO
    TITLE "0:"
    INDEX 01 00:27:12
  TRACK 35 AUDIO
    TITLE "5:cjc137_0398"
    INDEX 01 00:27:22
  TRACK 36 AUDIO
    TITLE "0:"
    INDEX 01 00:28:31
  TRACK 37 AUDIO
    TITLE "4:cjc137_0399"
    INDEX 01 00:29:38
  TRACK 38 AUDIO
    TITLE "0:"
    INDEX 01 00:30:54
  TRACK 39 AUDIO
    TITLE "6:cjc137_0400"
    INDEX 01 00:30:65
  TRACK 40 AUDIO
    TITLE "0:"
    INDEX 01 00:32:07
  TRACK 41 AUDIO
    TITLE "5:cjc137_0401"
    INDEX 01 00:32:19
  TRACK 42 AUDIO
    TITLE "0:"
    INDEX 01 00:33:32
  TRACK 43 AUDIO
    TITLE "4:cjc137_0402"
    INDEX 01 00:34:42
  TRACK 44 AUDIO
    TITLE "0:"
    INDEX 01 00:35:51
  TRACK 45 AUDIO
    TITLE "6:cjc137_0403"
    INDEX 01 00:35:66
  TRACK 46 AUDIO
    TITLE "0:"
    INDEX 01 00:37:20
  TRACK 47 AUDIO
    TITLE "5:cjc137_0404"
    INDEX 01 00:37:34
  TRACK 48 AUDIO
    TITLE "0:"
    INDEX 01 00:38:43
  TRACK 49 AUDIO
    TITLE "4:cjc137_0405"
    INDEX 01 00:39:52
  TRACK 50 AUDIO
    TITLE "0:"
    INDEX 01 00:40:56
  TRACK 51 AUDIO
    TITLE "6:cjc137_0406"
    INDEX 01 00:40:70
  TRACK 52 AUDIO
    TITLE "0:"
    INDEX 01 00:41:63
  TRACK 53 AUDIO
    TITLE "5:cjc137_0407"
    INDEX 01 00:42:02
  TRACK 54 AUDIO
    TITLE "0:"
    INDEX 01 00:43:09
  TRACK 55 AUDIO
    TITLE "4:cjc137_0408"
    INDEX 01 00:44:14
  TRACK 56 AUDIO
    TITLE "0:"
    INDEX 01 00:45:24
  TRACK 57 AUDIO
    TITLE "6:cjc137_0409"
    INDEX 01 00:45:37
  TRACK 58 AUDIO
    TITLE "0:"
    INDEX 01 00:46:60
  TRACK 59 AUDIO
    TITLE "5:cjc137_0410"
    INDEX 01 00:46:70
  TRACK 60 AUDIO
    TITLE "0:"
    INDEX 01 00:48:06
  TRACK 61 AUDIO
    TITLE "4:cjc137_0411"
    INDEX 01 00:49:14
  TRACK 62 AUDIO
    TITLE "0:"
    INDEX 01 00:50:23
  TRACK 63 AUDIO
    TITLE "6:cjc137_0412"
    INDEX 01 00:50:35
  TRACK 64 AUDIO
    TITLE "0:"
    INDEX 01 00:51:30
  TRACK 65 AUDIO
    TITLE "5:cjc137_0413"
    INDEX 01 00:51:40
  TRACK 66 AUDIO
    TITLE "0:"
    INDEX 01 00:52:47
  TRACK 67 AUDIO
    TITLE "4:cjc137_0414"
    INDEX 01 00:53:55
  TRACK 68 AUDIO
    TITLE "0:"
    INDEX 01 00:54:52
  TRACK 69 AUDIO
    TITLE "6:cjc137_0415"
    INDEX 01 00:54:64
  TRACK 70 AUDIO
    TITLE "0:"
    INDEX 01 00:55:44
  TRACK 71 AUDIO
    TITLE "5:cjc137_0416"
    INDEX 01 00:55:57
  TRACK 72 AUDIO
    TITLE "0:"
    INDEX 01 00:56:53
  TRACK 73 AUDIO
    TITLE "4:cjc137_0417"
    INDEX 01 00:57:64
  TRACK 74 AUDIO
    TITLE "0:"
    INDEX 01 00:58:60
  TRACK 75 AUDIO
    TITLE "6:cjc137_0418"
    INDEX 01 00:59:04
  TRACK 76 AUDIO
    TITLE "0:"
    INDEX 01 01:00:02
  TRACK 77 AUDIO
    TITLE "5:cjc137_0419"
    INDEX 01 01:00:21
  TRACK 78 AUDIO
    TITLE "0:"
    INDEX 01 01:01:19
  TRACK 79 AUDIO
    TITLE "4:cjc137_0420"
    INDEX 01 01:02:32
  TRACK 80 AUDIO
    TITLE "0:"
    INDEX 01 01:03:39
  TRACK 81 AUDIO
    TITLE "6:cjc137_0421"
    INDEX 01 01:03:49
  TRACK 82 AUDIO
    TITLE "0:"
    INDEX 01 01:04:70
  TRACK 83 AUDIO
    TITLE "5:cjc137_0422"
    INDEX 01 01:05:09
  TRACK 84 AUDIO
    TITLE "0:"
    INDEX 01 01:06:16
